<svg id="SvgjsSvg1001" width="288" height="288" xmlns="http://www.w3.org/2000/svg" version="1.1" xmlns:xlink="http://www.w3.org/1999/xlink" xmlns:svgjs="http://svgjs.com/svgjs"><defs id="SvgjsDefs1002"></defs><g id="SvgjsG1008" transform="matrix(1,0,0,1,0,0)"><svg xmlns="http://www.w3.org/2000/svg" width="288" height="288" version="1.0" viewBox="0 0 512 512"><g transform="matrix(.1 0 0 -.1 0 512)" fill="#ff385c" class="color000 svgShape"><path d="M2478 4899 c-326 -32 -670 -163 -913 -347 -143 -109 -302 -284 -395-437 -99 -161 -198 -411 -221 -557 -15 -92 -6 -359 16 -488 37 -218 111 -450
201 -625 121 -238 298 -553 399 -710 226 -355 416 -692 606 -1080 151 -308
245 -422 363 -439 64 -10 115 14 185 90 52 55 79 101 192 326 210 418 373 701
620 1079 132 201 322 535 434 764 136 277 215 612 215 913 0 146 -11 215 -56
350 -162 491 -496 850 -959 1035 -251 100 -495 145 -687 126z m307 -454 c380
-61 704 -306 870 -658 132 -279 149 -578 50 -875 -124 -369 -430 -656 -810
-758 -122 -32 -357 -44 -483 -24 -689 110 -1128 792 -946 1470 103 386 412
700 804 816 146 43 356 55 515 29z" fill="#ff385c" class="color000 svgShape"></path><path d="M2595 3992 c-11 -2 -87 -52 -170 -111 l-150 -109 -3 104 -3 104 -94
0 -95 0 0 -174 0 -174 -136 -97 c-74 -53 -133 -102 -131 -108 2 -7 32 -13 75
-15 l72 -3 0 -324 0 -325 240 0 240 0 0 165 c0 200 10 254 57 306 85 93 220
67 286 -56 20 -36 22 -58 25 -228 l4 -187 226 2 227 3 3 322 2 322 88 3 c59 2
87 7 87 15 0 14 -781 558 -810 564 -11 3 -29 3 -40 1z" fill="#ff385c" class="color000 svgShape"></path></g></svg></g></svg>